<mxfile host="app.diagrams.net" modified="2023-01-13T12:18:44.762Z" agent="5.0 (Windows NT 6.3; Win64; x64) AppleWebKit/537.36 (KHTML, like Gecko) Chrome/108.0.0.0 Safari/537.36" etag="L9lWNs1Wth78jPSOBok0" version="20.8.4" type="github">
  <diagram id="t4eagQUrZeoVRfX6Evzs" name="Página-1">
    <mxGraphModel dx="880" dy="484" grid="1" gridSize="10" guides="1" tooltips="1" connect="1" arrows="1" fold="1" page="1" pageScale="1" pageWidth="827" pageHeight="1169" math="0" shadow="0">
      <root>
        <mxCell id="0" />
        <mxCell id="1" parent="0" />
        <mxCell id="S_uqx1fov9PRCQS107F5-1" value="Linha de Ajuda de Alcóolicos Anônimos&lt;br&gt;ESL/RJ&lt;br&gt;&lt;br&gt;Digite o número &lt;br&gt;da opção desejada" style="rounded=0;whiteSpace=wrap;html=1;" parent="1" vertex="1">
          <mxGeometry x="30" y="100.5" width="140" height="92.5" as="geometry" />
        </mxCell>
        <mxCell id="S_uqx1fov9PRCQS107F5-2" value="5-Contribuições" style="rounded=0;whiteSpace=wrap;html=1;" parent="1" vertex="1">
          <mxGeometry x="30" y="339" width="140" height="20" as="geometry" />
        </mxCell>
        <mxCell id="S_uqx1fov9PRCQS107F5-3" value="2-Preciso ajudar alguém" style="rounded=0;whiteSpace=wrap;html=1;" parent="1" vertex="1">
          <mxGeometry x="210" y="212.5" width="140" height="20" as="geometry" />
        </mxCell>
        <mxCell id="S_uqx1fov9PRCQS107F5-4" value="2-Reuniões presenciais" style="rounded=0;whiteSpace=wrap;html=1;" parent="1" vertex="1">
          <mxGeometry x="30" y="279" width="140" height="20" as="geometry" />
        </mxCell>
        <mxCell id="S_uqx1fov9PRCQS107F5-5" value="4-Comprar literatura" style="rounded=0;whiteSpace=wrap;html=1;" parent="1" vertex="1">
          <mxGeometry x="30" y="319" width="140" height="20" as="geometry" />
        </mxCell>
        <mxCell id="S_uqx1fov9PRCQS107F5-6" value="3-Reuniões virtuais" style="rounded=0;whiteSpace=wrap;html=1;" parent="1" vertex="1">
          <mxGeometry x="30" y="299" width="140" height="20" as="geometry" />
        </mxCell>
        <mxCell id="S_uqx1fov9PRCQS107F5-7" value="Clique no link para encontrar um grupo com reunião presencial aarj.org.br/about/grupos" style="rounded=0;whiteSpace=wrap;html=1;" parent="1" vertex="1">
          <mxGeometry x="386" y="130" width="140" height="70.5" as="geometry" />
        </mxCell>
        <mxCell id="S_uqx1fov9PRCQS107F5-8" value="Clique no link para encontrar um grupo com reuniões virtuais&lt;br&gt;aa.org.br/reuniao-a-distancia" style="rounded=0;whiteSpace=wrap;html=1;" parent="1" vertex="1">
          <mxGeometry x="386" y="200.5" width="140" height="77.5" as="geometry" />
        </mxCell>
        <mxCell id="S_uqx1fov9PRCQS107F5-9" value="Clique no link para encontrar um grupo de Al-anon&lt;br&gt;al-anon.org.br" style="rounded=0;whiteSpace=wrap;html=1;" parent="1" vertex="1">
          <mxGeometry x="650" y="325" width="160" height="45" as="geometry" />
        </mxCell>
        <mxCell id="S_uqx1fov9PRCQS107F5-10" value="6-Calendários" style="rounded=0;whiteSpace=wrap;html=1;" parent="1" vertex="1">
          <mxGeometry x="30" y="359" width="140" height="20" as="geometry" />
        </mxCell>
        <mxCell id="S_uqx1fov9PRCQS107F5-11" value="1-Não sou membro" style="rounded=0;whiteSpace=wrap;html=1;" parent="1" vertex="1">
          <mxGeometry x="30" y="192.5" width="140" height="20" as="geometry" />
        </mxCell>
        <mxCell id="S_uqx1fov9PRCQS107F5-12" value="Atendimento imediato ligue para 21 2253-3377" style="rounded=0;whiteSpace=wrap;html=1;" parent="1" vertex="1">
          <mxGeometry x="386" y="90.5" width="140" height="39.5" as="geometry" />
        </mxCell>
        <mxCell id="S_uqx1fov9PRCQS107F5-13" value="Podemos ajudar em algo mais?" style="rounded=0;whiteSpace=wrap;html=1;" parent="1" vertex="1">
          <mxGeometry x="540" y="390" width="100" height="40" as="geometry" />
        </mxCell>
        <mxCell id="S_uqx1fov9PRCQS107F5-14" value="1-Sim" style="rounded=0;whiteSpace=wrap;html=1;" parent="1" vertex="1">
          <mxGeometry x="540" y="430" width="100" height="25" as="geometry" />
        </mxCell>
        <mxCell id="S_uqx1fov9PRCQS107F5-15" value="2-Não" style="rounded=0;whiteSpace=wrap;html=1;" parent="1" vertex="1">
          <mxGeometry x="540" y="455" width="100" height="25" as="geometry" />
        </mxCell>
        <mxCell id="S_uqx1fov9PRCQS107F5-16" value="1-Atendimento imediato" style="rounded=0;whiteSpace=wrap;html=1;" parent="1" vertex="1">
          <mxGeometry x="30" y="259" width="140" height="20" as="geometry" />
        </mxCell>
        <mxCell id="S_uqx1fov9PRCQS107F5-18" value="2-Já sou membro" style="rounded=0;whiteSpace=wrap;html=1;" parent="1" vertex="1">
          <mxGeometry x="30" y="212.5" width="140" height="20" as="geometry" />
        </mxCell>
        <mxCell id="DQRjKT5_ZZjvt3flhG4y-2" value="" style="endArrow=none;html=1;rounded=0;exitX=0.5;exitY=0;exitDx=0;exitDy=0;entryX=0.5;entryY=1;entryDx=0;entryDy=0;" edge="1" parent="1" source="S_uqx1fov9PRCQS107F5-16" target="S_uqx1fov9PRCQS107F5-18">
          <mxGeometry width="50" height="50" relative="1" as="geometry">
            <mxPoint x="250" y="257" as="sourcePoint" />
            <mxPoint x="300" y="207" as="targetPoint" />
          </mxGeometry>
        </mxCell>
        <mxCell id="DQRjKT5_ZZjvt3flhG4y-3" value="1-Eu preciso de ajuda" style="rounded=0;whiteSpace=wrap;html=1;" vertex="1" parent="1">
          <mxGeometry x="210" y="192.5" width="140" height="20" as="geometry" />
        </mxCell>
        <mxCell id="DQRjKT5_ZZjvt3flhG4y-11" value="2-Reuniões presenciais" style="rounded=0;whiteSpace=wrap;html=1;" vertex="1" parent="1">
          <mxGeometry x="210" y="279" width="140" height="20" as="geometry" />
        </mxCell>
        <mxCell id="DQRjKT5_ZZjvt3flhG4y-12" value="3-Reuniões virtuais" style="rounded=0;whiteSpace=wrap;html=1;" vertex="1" parent="1">
          <mxGeometry x="210" y="299" width="140" height="20" as="geometry" />
        </mxCell>
        <mxCell id="DQRjKT5_ZZjvt3flhG4y-13" value="1-Atendimento imediato" style="rounded=0;whiteSpace=wrap;html=1;" vertex="1" parent="1">
          <mxGeometry x="210" y="259" width="140" height="20" as="geometry" />
        </mxCell>
        <mxCell id="DQRjKT5_ZZjvt3flhG4y-15" value="" style="endArrow=none;html=1;rounded=0;exitX=1;exitY=0.5;exitDx=0;exitDy=0;entryX=0;entryY=0.5;entryDx=0;entryDy=0;" edge="1" parent="1" source="S_uqx1fov9PRCQS107F5-11" target="DQRjKT5_ZZjvt3flhG4y-3">
          <mxGeometry width="50" height="50" relative="1" as="geometry">
            <mxPoint x="240" y="227" as="sourcePoint" />
            <mxPoint x="290" y="177" as="targetPoint" />
          </mxGeometry>
        </mxCell>
        <mxCell id="DQRjKT5_ZZjvt3flhG4y-19" value="4-Al-anon" style="rounded=0;whiteSpace=wrap;html=1;" vertex="1" parent="1">
          <mxGeometry x="210" y="319" width="140" height="20" as="geometry" />
        </mxCell>
        <mxCell id="DQRjKT5_ZZjvt3flhG4y-20" value="2-Reuniões presenciais" style="rounded=0;whiteSpace=wrap;html=1;" vertex="1" parent="1">
          <mxGeometry x="210" y="120.5" width="140" height="20" as="geometry" />
        </mxCell>
        <mxCell id="DQRjKT5_ZZjvt3flhG4y-21" value="3-Reuniões virtuais" style="rounded=0;whiteSpace=wrap;html=1;" vertex="1" parent="1">
          <mxGeometry x="210" y="140.5" width="140" height="20" as="geometry" />
        </mxCell>
        <mxCell id="DQRjKT5_ZZjvt3flhG4y-26" value="" style="edgeStyle=orthogonalEdgeStyle;rounded=0;orthogonalLoop=1;jettySize=auto;html=1;" edge="1" parent="1" source="DQRjKT5_ZZjvt3flhG4y-22" target="S_uqx1fov9PRCQS107F5-12">
          <mxGeometry relative="1" as="geometry" />
        </mxCell>
        <mxCell id="DQRjKT5_ZZjvt3flhG4y-22" value="1-Atendimento imediato" style="rounded=0;whiteSpace=wrap;html=1;" vertex="1" parent="1">
          <mxGeometry x="210" y="100.5" width="140" height="20" as="geometry" />
        </mxCell>
        <mxCell id="DQRjKT5_ZZjvt3flhG4y-24" value="" style="endArrow=classic;html=1;rounded=0;entryX=0.5;entryY=1;entryDx=0;entryDy=0;exitX=0.5;exitY=0;exitDx=0;exitDy=0;" edge="1" parent="1" source="DQRjKT5_ZZjvt3flhG4y-3" target="DQRjKT5_ZZjvt3flhG4y-21">
          <mxGeometry width="50" height="50" relative="1" as="geometry">
            <mxPoint x="240" y="240" as="sourcePoint" />
            <mxPoint x="290" y="190" as="targetPoint" />
          </mxGeometry>
        </mxCell>
        <mxCell id="DQRjKT5_ZZjvt3flhG4y-25" value="" style="endArrow=classic;html=1;rounded=0;entryX=0.5;entryY=0;entryDx=0;entryDy=0;exitX=0.5;exitY=1;exitDx=0;exitDy=0;" edge="1" parent="1" source="S_uqx1fov9PRCQS107F5-3" target="DQRjKT5_ZZjvt3flhG4y-13">
          <mxGeometry width="50" height="50" relative="1" as="geometry">
            <mxPoint x="240" y="240" as="sourcePoint" />
            <mxPoint x="290" y="190" as="targetPoint" />
          </mxGeometry>
        </mxCell>
      </root>
    </mxGraphModel>
  </diagram>
</mxfile>
